<?xml version="1.0" standalone="no"?>
<!DOCTYPE svg PUBLIC "-//W3C//DTD SVG 1.1//EN" "http://www.w3.org/Graphics/SVG/1.1/DTD/svg11.dtd" >
<svg xmlns="http://www.w3.org/2000/svg">
<metadata>
This is a custom SVG webfont generated by Font Squirrel.
</metadata>
<defs>
<font id="webfontO39mS31E" horiz-adv-x="1024" vert-adv-y="2048" >
<font-face units-per-em="2048" ascent="1759" descent="-289" />
<missing-glyph horiz-adv-x="500" />
<glyph unicode=" " />
<glyph unicode="!" horiz-adv-x="2048" d="M512 989v768h1024v-768h-256v-510h-512v510h-256zM768 223h512v-512h-512v512z" />
<glyph unicode="&#x22;" horiz-adv-x="2048" vert-adv-y="0" d="M127 989v256h258v-256h-258zM385 1245v256h254v-256h-254zM639 989h258v256h-258v-256zM897 1245v256h254v-256h-254z" />
<glyph unicode="#" horiz-adv-x="2048" d="M385 223v256h254v510h-254v256h254v256h258v-256h254v256h258v-256h254v-256h-254v-510h254v-256h-254v-256h-258v256h-254v-256h-258v256h-254zM897 479h254v510h-254v-510z" />
<glyph unicode="$" horiz-adv-x="2048" d="M385 223v256h254v-256h-254zM385 989v256h254v-256h-254zM639 -33h258v-256h254v256h258v256h-258v256h258v254h-258v512h258v256h-258v256h-254v-256h-258v-256h258v-256h-258v-256h258v-510h-258v-256zM1409 223v256h254v-256h-254zM1409 989v256h254v-256h-254z" />
<glyph unicode="%" horiz-adv-x="2048" d="M0 989v256h256v-256h-256zM256 223v-512h256v256h256v256h256v256h256v254h256v256h256v512h-256v-256h-256v-256h-256v-256h-256v-254h-256v-256h-256zM256 733h256v256h-256v-256zM256 1245v256h256v-256h-256zM512 989v256h256v-256h-256zM1280 -33v256h256v-256h-256 zM1536 -33v-256h256v256h-256zM1536 223v256h256v-256h-256zM1792 -33v256h256v-256h-256z" />
<glyph unicode="&#x26;" horiz-adv-x="2048" d="M127 -33h258v-256h1024v256h-770v512h-254v-256h-258v-256zM127 989h258v-256h254v512h258v-512h-258v-254h512v510h258v256h-258v256h-766v-256h-258v-256zM1151 223v256h258v-256h-258zM1409 -33h254v256h-254v-256zM1663 -33h258v-256h-258v256zM1663 223v256h258 v-256h-258z" />
<glyph unicode="'" horiz-adv-x="919" d="M205 989h256v-256h256v768h-512v-512z" />
<glyph unicode="(" />
<glyph unicode=")" />
<glyph unicode="*" horiz-adv-x="2048" d="M385 -33h254v256h-254v-256zM385 733v256h254v-256h-254zM639 223h258v-512h254v512h258v510h-258v512h-254v-512h-258v-510zM1409 -33v256h254v-256h-254zM1409 733h254v256h-254v-256z" />
<glyph unicode="+" horiz-adv-x="2048" d="M385 479h512v-512h254v512h512v254h-512v512h-254v-512h-512v-254z" />
<glyph unicode="," horiz-adv-x="919" d="M205 0h256v-256h256v768h-512v-512z" />
<glyph unicode="-" horiz-adv-x="2048" d="M385 479v254h1278v-254h-1278z" />
<glyph unicode="." horiz-adv-x="919" d="M205 0v512h512v-512h-512z" />
<glyph unicode="/" horiz-adv-x="2048" d="M256 223v-512h256v256h256v256h256v256h256v254h256v256h256v512h-256v-256h-256v-256h-256v-256h-256v-254h-256v-256h-256z" />
<glyph unicode="0" horiz-adv-x="2048" d="M127 223h258v-256h254v-256h770v256h254v256h258v766h-258v256h-254v256h-770v-256h-254v-256h-258v-766zM639 223v766h258v256h254v-256h258v-766h-258v-256h-254v256h-258z" />
<glyph unicode="1" horiz-adv-x="2048" d="M512 -33h256v1022h-256v256h256v256h512v-1534h256v-256h-1024v256z" />
<glyph unicode="2" horiz-adv-x="2048" d="M127 -33v-256h1794v512h-258v-256h-512v256h258v256h254v254h258v512h-258v256h-1278v-256h-258v-512h512v512h770v-256h-258v-256h-254v-254h-258v-256h-254v-256h-258z" />
<glyph unicode="3" horiz-adv-x="2048" d="M127 -33h258v-256h1278v256h258v512h-258v254h258v512h-258v256h-1278v-256h-258v-256h512v256h770v-512h-512v-254h512v-512h-770v256h-512v-256z" />
<glyph unicode="4" horiz-adv-x="2048" d="M127 223v510h258v256h254v256h258v256h766v-1022h258v-256h-258v-512h-512v512h-1024zM639 479h512v510h-254v-256h-258v-254z" />
<glyph unicode="5" horiz-adv-x="2048" d="M127 -33v-256h1536v256h258v512h-258v254h-1024v512h1282v256h-1794v-1022h1282v-512h-1282z" />
<glyph unicode="6" horiz-adv-x="2048" d="M127 -33v1278h258v256h1278v-256h258v-256h-512v256h-770v-512h1024v-254h258v-512h-258v-256h-1278v256h-258zM639 -33h770v512h-770v-512z" />
<glyph unicode="7" horiz-adv-x="2048" d="M127 989h512v256h770v-512h-258v-510h-254v-512h512v512h254v510h258v768h-1794v-512z" />
<glyph unicode="8" horiz-adv-x="2048" d="M127 -33v512h258v254h-258v512h258v256h1278v-256h258v-512h-258v-254h258v-512h-258v-256h-1278v256h-258zM639 -33h770v512h-770v-512zM639 733h770v512h-770v-512z" />
<glyph unicode="9" horiz-adv-x="2048" d="M127 -33h258v-256h1278v256h258v1278h-258v256h-1278v-256h-258v-512h258v-254h1024v-512h-770v256h-512v-256zM639 733v512h770v-512h-770z" />
<glyph unicode=":" horiz-adv-x="919" d="M205 223v510h512v-510h-512zM205 989v512h512v-512h-512z" />
<glyph unicode=";" horiz-adv-x="919" d="M205 223v510h512v-766h-256v256h-256zM205 989v512h512v-512h-512z" />
<glyph unicode="&#x3c;" horiz-adv-x="2048" d="M385 479v254h254v256h258v256h254v256h512v-256h-254v-256h-258v-256h-254v-254h254v-256h258v-256h254v-256h-512v256h-254v256h-258v256h-254z" />
<glyph unicode="=" horiz-adv-x="2048" d="M256 -33h1536v256h-1536v-256zM256 733v256h1536v-256h-1536z" />
<glyph unicode="&#x3e;" horiz-adv-x="2048" d="M385 -33v-256h512v256h254v256h258v256h254v254h-254v256h-258v256h-254v256h-512v-256h254v-256h258v-256h254v-254h-254v-256h-258v-256h-254z" />
<glyph unicode="?" horiz-adv-x="2048" d="M256 989v512h256v256h1024v-256h256v-768h-512v-254h-512v254h256v256h512v256h-256v256h-512v-256h-256v-256h-256zM768 223h512v-512h-512v512z" />
<glyph unicode="@" horiz-adv-x="2048" d="M0 223v1022h264v-1022h-264zM256 -33v256h256v-256h-256zM256 1245v256h256v-256h-256zM512 -33h1024v-256h-1024v256zM512 479v510h256v-510h-256zM512 1501v256h1024v-256h-1024zM768 223v256h256v-256h-256zM768 989v256h512v-256h-512zM1024 479v254h256v256h256 v-510h256v766h256v-1022h-256v-256h-256v256h-256v256h-256zM1536 1245v256h256v-256h-256z" />
<glyph unicode="A" horiz-adv-x="2048" d="M127 -289h512v768h770v-768h512v1278h-258v256h-254v256h-770v-256h-254v-256h-258v-1278zM639 733v256h258v256h254v-256h258v-256h-770z" />
<glyph unicode="B" horiz-adv-x="2048" d="M127 -289v1790h1536v-256h258v-512h-258v-254h258v-512h-258v-256h-1536zM639 -33h770v512h-770v-512zM639 733h770v512h-770v-512z" />
<glyph unicode="C" horiz-adv-x="2048" d="M127 -33v1278h258v256h1278v-256h258v-256h-512v256h-512v-256h-258v-766h258v-256h512v256h512v-256h-258v-256h-1278v256h-258z" />
<glyph unicode="D" horiz-adv-x="2048" d="M127 -289v1790h1282v-256h254v-256h258v-766h-258v-256h-254v-256h-1282zM639 -33h512v256h258v766h-258v256h-512v-1278z" />
<glyph unicode="E" horiz-adv-x="2048" d="M127 -289v1790h1794v-256h-1282v-512h1024v-254h-1024v-512h1282v-256h-1794z" />
<glyph unicode="F" horiz-adv-x="2048" d="M127 -289v1790h1794v-256h-1282v-512h1024v-254h-1024v-768h-512z" />
<glyph unicode="G" horiz-adv-x="2048" d="M127 -33v1278h258v256h1278v-256h258v-256h-512v256h-512v-256h-258v-766h258v-256h512v512h-258v254h770v-766h-258v-256h-1278v256h-258z" />
<glyph unicode="H" horiz-adv-x="2048" d="M127 -289h512v768h770v-768h512v1790h-512v-768h-770v768h-512v-1790z" />
<glyph unicode="I" horiz-adv-x="2048" d="M512 -33v-256h1024v256h-256v1278h256v256h-1024v-256h256v-1278h-256z" />
<glyph unicode="J" horiz-adv-x="2048" d="M127 -33h258v-256h1024v256h254v1278h258v256h-1024v-256h254v-1278h-512v512h-512v-512z" />
<glyph unicode="K" horiz-adv-x="2048" d="M127 -289v1790h512v-512h258v256h254v256h770v-256h-258v-256h-254v-256h-258v-254h258v-256h254v-256h258v-256h-770v256h-254v256h-258v-512h-512z" />
<glyph unicode="L" horiz-adv-x="2048" d="M127 -289v1790h512v-1534h1282v-256h-1794z" />
<glyph unicode="M" horiz-adv-x="2048" d="M127 -289v1790h512v-256h258v-512h254v512h258v256h512v-1790h-512v768h-258v-512h-254v512h-258v-768h-512z" />
<glyph unicode="N" horiz-adv-x="2048" d="M127 -289v1790h512v-256h258v-256h254v-256h258v768h512v-1790h-512v256h-258v256h-254v256h-258v-768h-512z" />
<glyph unicode="O" horiz-adv-x="2048" d="M127 -33v1278h258v256h1278v-256h258v-1278h-258v-256h-1278v256h-258zM639 -33h770v1278h-770v-1278z" />
<glyph unicode="P" horiz-adv-x="2048" d="M127 -289v1790h1536v-256h258v-512h-258v-254h-1024v-768h-512zM639 733h770v512h-770v-512z" />
<glyph unicode="Q" horiz-adv-x="2048" d="M127 -33v1278h258v256h1278v-256h258v-1022h-258v-256h-254v-256h-1024v256h-258zM639 -33h512v256h-254v256h254v-256h258v1022h-770v-1278zM1663 -33h258v-256h-258v256z" />
<glyph unicode="R" horiz-adv-x="2048" d="M127 -289v1790h1536v-256h258v-512h-258v-254h-254v-256h254v-256h258v-256h-512v256h-258v256h-254v256h-258v-768h-512zM639 733h770v512h-770v-512z" />
<glyph unicode="S" horiz-adv-x="2048" d="M127 -33h258v-256h1278v256h258v512h-258v254h-1024v512h770v-256h512v256h-258v256h-1278v-256h-258v-512h258v-254h1024v-512h-770v256h-512v-256z" />
<glyph unicode="T" horiz-adv-x="2048" d="M0 1245h768v-1534h512v1534h768v256h-2048v-256z" />
<glyph unicode="U" horiz-adv-x="2048" d="M127 -33v1534h512v-1534h770v1534h512v-1534h-258v-256h-1278v256h-258z" />
<glyph unicode="V" horiz-adv-x="2048" d="M127 989v512h512v-512h258v-510h254v510h258v512h512v-512h-258v-510h-254v-512h-258v-256h-254v256h-258v512h-254v510h-258z" />
<glyph unicode="W" horiz-adv-x="2048" d="M127 -33v1534h512v-1278h258v1022h254v-1022h258v1278h512v-1534h-258v-256h-512v256h-254v-256h-512v256h-258z" />
<glyph unicode="X" horiz-adv-x="2048" d="M127 -33h258v256h254v510h-254v256h-258v512h512v-256h258v-256h254v256h258v256h512v-256h-258v-256h-254v-510h254v-256h258v-512h-512v256h-258v256h-254v-256h-258v-256h-512v256z" />
<glyph unicode="Y" horiz-adv-x="2048" d="M0 1245h256v-256h256v-256h256v-1022h512v1022h256v256h256v256h256v256h-512v-256h-256v-256h-512v256h-256v256h-512v-256z" />
<glyph unicode="Z" horiz-adv-x="2048" d="M127 223v-512h1794v256h-1282v256h258v256h254v254h258v256h254v256h258v256h-1794v-256h1024v-256h-254v-256h-258v-254h-254v-256h-258z" />
<glyph unicode="[" />
<glyph unicode="\" horiz-adv-x="2048" d="M0 1245v256h512v-256h256v-256h512v256h256v256h512v-256h-256v-256h-256v-256h256v-254h-512v-256h512v-256h-512v-256h-512v256h-512v256h512v256h-512v254h256v256h-256v256h-256z" />
<glyph unicode="]" />
<glyph unicode="^" horiz-adv-x="919" d="M76 1245v256h256v-256h-256zM332 1501v256h256v-256h-256zM588 1245v256h256v-256h-256z" />
<glyph unicode="_" horiz-adv-x="2048" d="M256 -33v256h1536v-256h-1536z" />
<glyph unicode="`" />
<glyph unicode="a" horiz-adv-x="2048" d="M127 -33v512h258v254h766v256h-766v256h1024v-256h254v-1022h258v-256h-1536v256h-258zM639 -33h512v512h-512v-512z" />
<glyph unicode="b" horiz-adv-x="2048" d="M256 -289v1790h512v-768h768v-254h256v-512h-256v-256h-1280zM768 -33h512v512h-512v-512z" />
<glyph unicode="c" horiz-adv-x="2048" d="M127 -33h258v-256h1278v256h258v256h-512v-256h-770v1022h770v-256h512v256h-258v256h-1278v-256h-258v-1022z" />
<glyph unicode="d" horiz-adv-x="2048" d="M256 -33h256v-256h1280v1790h-512v-768h-768v-239h-256v-527zM768 -33v512h512v-512h-512z" />
<glyph unicode="e" horiz-adv-x="2048" d="M127 -33v1022h258v256h1278v-256h258v-510h-258v-256h-1024v-256h1282v-256h-1536v256h-258zM639 479h770v510h-770v-510z" />
<glyph unicode="f" horiz-adv-x="2048" d="M127 479v254h512v512h258v256h766v-256h-512v-512h770v-254h-770v-768h-512v768h-512z" />
<glyph unicode="g" horiz-adv-x="2048" d="M256 479h256v-256h768v-256h-768v-256h1024v256h256v1022h-256v256h-1024v-256h-256v-510zM768 479v510h512v-510h-512z" />
<glyph unicode="h" horiz-adv-x="2048" d="M125 -289h512v768h256v254h-256v768h-512v-1790zM893 733v256h768v-256h256l6 -1022h-518v1022h-512z" />
<glyph unicode="i" horiz-adv-x="2048" d="M385 -33h254v512h-254v254h1024v-766h254v-256h-1278v256zM639 989v512h770v-512h-770z" />
<glyph unicode="j" horiz-adv-x="2048" d="M127 -33v512h512v-512h512v766h770v-766h-258v-256h-1278v256h-258zM1151 989h770v512h-770v-512z" />
<glyph unicode="k" horiz-adv-x="2048" d="M256 -289h512v512h512v-512h512v512h-256v256h-256v254h256v256h256v256h-512v-256h-256v-256h-256v768h-512v-1790z" />
<glyph unicode="l" horiz-adv-x="2048" d="M639 -289v1790h770v-1790h-770z" />
<glyph unicode="m" horiz-adv-x="2048" d="M127 -289h512v1278h258v-1278h254v1278h258v-1278h512v1278h-258v256h-1536v-1534z" />
<glyph unicode="n" horiz-adv-x="2048" d="M256 -289v1534h1280v-256h256v-1278h-512v1278h-512v-1278h-512z" />
<glyph unicode="o" horiz-adv-x="2048" d="M127 -33v1022h258v256h1278v-256h258v-1022h-258v-256h-1278v256h-258zM639 -33h770v1022h-770v-1022z" />
<glyph unicode="p" horiz-adv-x="2048" d="M256 -289h512v768h768v254h256v512h-256v256h-1280v-1790zM768 733v512h512v-512h-512z" />
<glyph unicode="q" horiz-adv-x="2048" d="M256 479v766h256v256h1280v-1790h-512v512h-768v256h-256zM768 479h512v766h-512v-766z" />
<glyph unicode="r" horiz-adv-x="2048" d="M127 989v256h770v-256h254v256h512v-256h258v-510h-512v254h-512v-1022h-512v1278h-258z" />
<glyph unicode="s" horiz-adv-x="2048" d="M127 -33v256h512v-256h770v256h-512v256h-770v510h258v256h1278v-256h258v-256h-512v256h-770v-256h512v-254h770v-512h-258v-256h-1278v256h-258z" />
<glyph unicode="t" horiz-adv-x="2048" d="M127 733v256h512v512h512v-512h770v-256h-770v-766h770v-256h-1024v256h-258v766h-512z" />
<glyph unicode="u" horiz-adv-x="2048" d="M256 -33v1278h512v-1278h512v1278h512v-1278h-256v-256h-1024v256h-256z" />
<glyph unicode="v" horiz-adv-x="2048" d="M256 223h256v-256h256v1278h-512v-1022zM768 -33h512v-256h-512v256zM1280 -33v1278h512v-1014h-256v-264h-256z" />
<glyph unicode="w" horiz-adv-x="2048" d="M127 -33v1278h512v-1278h258v1278h254v-1278h258v1278h512v-1278h-258v-256h-1278v256h-258z" />
<glyph unicode="x" horiz-adv-x="2048" d="M256 -33h256v256h256v256h-256v254h-256v512h256v-256h256v-256h512v256h256v256h256v-512h-256v-254h-256v-256h256v-256h256v-256h-512v256h-512v-256h-512v256z" />
<glyph unicode="y" horiz-adv-x="2048" d="M256 -33v-256h1280v256h256v1278h-512v-766h-512v766h-512v-766h256v-256h768v-256h-1024z" />
<glyph unicode="z" horiz-adv-x="2048" d="M256 -33v-256h1536v512h-256v-256h-512v256h256v256h256v254h256v512h-1536v-512h256v256h768v-256h-256v-254h-256v-256h-256v-256h-256z" />
<glyph unicode="{" />
<glyph unicode="|" />
<glyph unicode="}" />
<glyph unicode="~" />
<glyph unicode="&#xa0;" />
<glyph unicode="&#xa1;" />
<glyph unicode="&#xa2;" />
<glyph unicode="&#xa3;" />
<glyph unicode="&#xa4;" />
<glyph unicode="&#xa5;" />
<glyph unicode="&#xa6;" />
<glyph unicode="&#xa7;" horiz-adv-x="2048" />
<glyph unicode="&#xa8;" horiz-adv-x="2048" />
<glyph unicode="&#xa9;" />
<glyph unicode="&#xaa;" />
<glyph unicode="&#xab;" />
<glyph unicode="&#xac;" />
<glyph unicode="&#xad;" />
<glyph unicode="&#xae;" />
<glyph unicode="&#xaf;" />
<glyph unicode="&#xb0;" horiz-adv-x="2048" />
<glyph unicode="&#xb1;" horiz-adv-x="2048" d="M385 -33h1278v-256h-1278v256zM385 733h512v-510h254v510h512v256h-512v512h-254v-512h-512v-256z" />
<glyph unicode="&#xb2;" />
<glyph unicode="&#xb3;" />
<glyph unicode="&#xb4;" horiz-adv-x="2048" />
<glyph unicode="&#xb5;" />
<glyph unicode="&#xb6;" horiz-adv-x="2048" />
<glyph unicode="&#xb7;" />
<glyph unicode="&#xb8;" />
<glyph unicode="&#xb9;" />
<glyph unicode="&#xba;" />
<glyph unicode="&#xbb;" />
<glyph unicode="&#xbc;" />
<glyph unicode="&#xbd;" />
<glyph unicode="&#xbe;" />
<glyph unicode="&#xbf;" />
<glyph unicode="&#xc0;" />
<glyph unicode="&#xc1;" />
<glyph unicode="&#xc2;" />
<glyph unicode="&#xc3;" />
<glyph unicode="&#xc4;" />
<glyph unicode="&#xc5;" />
<glyph unicode="&#xc6;" />
<glyph unicode="&#xc7;" />
<glyph unicode="&#xc8;" />
<glyph unicode="&#xc9;" />
<glyph unicode="&#xca;" />
<glyph unicode="&#xcb;" />
<glyph unicode="&#xcc;" />
<glyph unicode="&#xcd;" />
<glyph unicode="&#xce;" />
<glyph unicode="&#xcf;" />
<glyph unicode="&#xd0;" />
<glyph unicode="&#xd1;" />
<glyph unicode="&#xd2;" />
<glyph unicode="&#xd3;" />
<glyph unicode="&#xd4;" />
<glyph unicode="&#xd5;" />
<glyph unicode="&#xd6;" />
<glyph unicode="&#xd7;" horiz-adv-x="2048" d="M133 -37h254v-254h-254v254zM133 1235v254h254v-254h-254zM387 -37v254h254v-254h-254zM387 981v254h254v-254h-254zM641 217v254h256v-254h-256zM641 725v256h256v-256h-256zM897 471v254h254v-254h-254zM1151 217v254h256v-254h-256zM1151 725v256h256v-256h-256z M1407 -37v254h254v-254h-254zM1407 981v254h254v-254h-254zM1661 -37h254v-254h-254v254zM1661 1235v254h254v-254h-254z" />
<glyph unicode="&#xd8;" />
<glyph unicode="&#xd9;" />
<glyph unicode="&#xda;" />
<glyph unicode="&#xdb;" />
<glyph unicode="&#xdc;" />
<glyph unicode="&#xdd;" />
<glyph unicode="&#xde;" />
<glyph unicode="&#xdf;" />
<glyph unicode="&#xe0;" />
<glyph unicode="&#xe1;" />
<glyph unicode="&#xe2;" />
<glyph unicode="&#xe3;" />
<glyph unicode="&#xe4;" />
<glyph unicode="&#xe5;" />
<glyph unicode="&#xe6;" />
<glyph unicode="&#xe7;" />
<glyph unicode="&#xe8;" />
<glyph unicode="&#xe9;" />
<glyph unicode="&#xea;" />
<glyph unicode="&#xeb;" />
<glyph unicode="&#xec;" />
<glyph unicode="&#xed;" />
<glyph unicode="&#xee;" />
<glyph unicode="&#xef;" />
<glyph unicode="&#xf0;" />
<glyph unicode="&#xf1;" />
<glyph unicode="&#xf2;" />
<glyph unicode="&#xf3;" />
<glyph unicode="&#xf4;" />
<glyph unicode="&#xf5;" />
<glyph unicode="&#xf6;" />
<glyph unicode="&#xf7;" horiz-adv-x="2048" d="M256 479v254h1536v-254h-1536zM768 -33h512v256h-512v-256zM768 989v256h512v-256h-512z" />
<glyph unicode="&#xf8;" />
<glyph unicode="&#xf9;" />
<glyph unicode="&#xfa;" />
<glyph unicode="&#xfb;" />
<glyph unicode="&#xfc;" />
<glyph unicode="&#xfd;" />
<glyph unicode="&#xfe;" />
<glyph unicode="&#xff;" />
<glyph unicode="&#x152;" />
<glyph unicode="&#x153;" />
<glyph unicode="&#x178;" />
<glyph unicode="&#x2c6;" />
<glyph unicode="&#x2dc;" />
<glyph unicode="&#x2000;" horiz-adv-x="876" vert-adv-y="0" />
<glyph unicode="&#x2001;" horiz-adv-x="1757" vert-adv-y="0" />
<glyph unicode="&#x2002;" horiz-adv-x="876" vert-adv-y="0" />
<glyph unicode="&#x2003;" horiz-adv-x="1757" vert-adv-y="0" />
<glyph unicode="&#x2004;" horiz-adv-x="585" vert-adv-y="0" />
<glyph unicode="&#x2005;" horiz-adv-x="436" vert-adv-y="0" />
<glyph unicode="&#x2006;" horiz-adv-x="290" vert-adv-y="0" />
<glyph unicode="&#x2007;" horiz-adv-x="290" vert-adv-y="0" />
<glyph unicode="&#x2008;" horiz-adv-x="217" vert-adv-y="0" />
<glyph unicode="&#x2009;" horiz-adv-x="348" vert-adv-y="0" />
<glyph unicode="&#x200a;" horiz-adv-x="94" vert-adv-y="0" />
<glyph unicode="&#x2010;" horiz-adv-x="2048" d="M385 479v254h1278v-254h-1278z" />
<glyph unicode="&#x2011;" horiz-adv-x="2048" d="M385 479v254h1278v-254h-1278z" />
<glyph unicode="&#x2013;" />
<glyph unicode="&#x2014;" />
<glyph unicode="&#x2018;" horiz-adv-x="2048" />
<glyph unicode="&#x2019;" horiz-adv-x="2048" />
<glyph unicode="&#x201a;" />
<glyph unicode="&#x201c;" horiz-adv-x="2048" d="M385 479h512v510h-258v256h-254v-766zM639 1245v256h258v-256h-258zM1151 479v766h258v-256h254v-510h-512zM1409 1245v256h254v-256h-254z" />
<glyph unicode="&#x201d;" horiz-adv-x="2048" d="M385 479v254h254v-254h-254zM385 989v512h512v-768h-258v256h-254zM1151 479v254h258v-254h-258zM1151 989v512h512v-768h-254v256h-258z" />
<glyph unicode="&#x201e;" />
<glyph unicode="&#x2022;" />
<glyph unicode="&#x2026;" horiz-adv-x="2048" />
<glyph unicode="&#x202f;" horiz-adv-x="348" vert-adv-y="0" />
<glyph unicode="&#x2039;" />
<glyph unicode="&#x203a;" />
<glyph unicode="&#x205f;" horiz-adv-x="436" vert-adv-y="0" />
<glyph unicode="&#x2122;" />
</font>
</defs>
</svg>
